<?xml version="1.0" standalone="no"?>
<!DOCTYPE svg PUBLIC "-//W3C//DTD SVG 20010904//EN"
 "http://www.w3.org/TR/2001/REC-SVG-20010904/DTD/svg10.dtd">
<svg version="1.0" xmlns="http://www.w3.org/2000/svg"
 width="541.000000pt" height="541.000000pt" viewBox="0 0 541.000000 541.000000"
 preserveAspectRatio="xMidYMid meet">
<metadata>
Created by potrace 1.11, written by Peter Selinger 2001-2013
</metadata>
<g transform="translate(0.000000,541.000000) scale(0.100000,-0.100000)"
fill="#000000" stroke="none">
<path d="M1540 2954 c-561 -284 -596 -302 -583 -314 4 -5 254 -132 556 -284
l547 -276 0 117 0 118 -321 160 c-176 88 -325 165 -329 170 -6 7 104 67 321
175 l330 165 -2 95 c-1 52 -4 103 -8 112 -5 14 -88 -24 -511 -238z"/>
<path d="M3378 3197 c-4 -10 -3 -128 1 -192 1 -16 69 -54 331 -185 181 -91
330 -167 330 -170 0 -3 -151 -81 -335 -173 l-335 -168 1 -92 c1 -130 2 -131
69 -99 153 73 1015 504 1031 516 15 10 17 15 7 24 -12 9 -716 364 -980 494
-77 38 -118 53 -120 45z"/>
<path d="M2380 3071 c-220 -45 -339 -414 -216 -672 57 -121 138 -182 240 -183
106 0 193 56 271 178 l37 58 43 -65 c128 -191 321 -229 448 -88 79 87 119 210
120 361 0 289 -173 467 -385 394 -53 -17 -112 -72 -169 -156 -22 -32 -41 -58
-43 -58 -2 0 -22 27 -45 59 -59 85 -133 148 -194 166 -55 16 -55 16 -107 6z
m684 -230 c30 -33 45 -92 45 -176 1 -181 -55 -252 -147 -186 -36 25 -100 117
-105 151 -5 27 26 88 77 155 60 77 97 93 130 56z m-619 -21 c47 -18 135 -132
135 -176 0 -64 -127 -229 -172 -222 -50 7 -77 83 -78 216 0 84 15 138 47 174
18 21 31 22 68 8z"/>
</g>
</svg>
